<?xml version="1.0" standalone="no"?>
<!DOCTYPE svg PUBLIC "-//W3C//DTD SVG 20010904//EN"
 "http://www.w3.org/TR/2001/REC-SVG-20010904/DTD/svg10.dtd">
<svg version="1.0" xmlns="http://www.w3.org/2000/svg"
 width="1080.000000pt" height="1080.000000pt" viewBox="0 0 1080.000000 1080.000000"
 preserveAspectRatio="xMidYMid meet">

<g transform="translate(0.000000,1080.000000) scale(0.100000,-0.100000)"
fill="#000000" stroke="none">
<path d="M5780 7026 c-12 -32 -30 -34 -30 -4 0 22 0 22 -17 -2 -9 -14 -18 -27
-19 -29 -2 -2 -10 1 -17 7 -16 14 -27 6 -27 -20 0 -23 -18 -23 -50 -1 -19 14
-25 14 -28 3 -8 -24 -50 -60 -70 -60 -13 0 -22 -10 -27 -27 l-8 -28 -7 25 -7
25 -12 -28 c-6 -16 -11 -41 -11 -57 0 -30 -15 -49 -23 -28 -2 7 -7 -3 -11 -23
-5 -31 -10 -36 -28 -31 -13 3 -25 -1 -33 -11 -6 -9 -23 -21 -37 -26 -21 -8
-26 -16 -26 -50 -1 -26 5 -44 16 -52 14 -11 15 -11 5 1 -15 16 -17 30 -5 30 5
0 15 -18 22 -40 13 -40 9 -172 -8 -250 -9 -41 -4 -140 8 -140 4 0 10 51 14
112 4 62 13 119 19 126 6 8 16 23 22 35 26 52 167 118 280 131 28 3 73 10 100
15 55 10 114 2 160 -22 54 -28 124 -51 187 -61 43 -8 45 -12 48 -121 2 -102
26 -179 58 -183 12 -2 20 -7 17 -12 -3 -4 -22 -4 -42 1 -29 6 -42 5 -53 -7
-13 -13 -13 -14 4 -8 14 5 17 4 11 -5 -4 -8 -3 -16 4 -20 8 -5 9 -15 2 -32 -7
-17 -10 -19 -10 -7 -1 12 -6 15 -17 11 -8 -3 -26 0 -39 7 -25 13 -92 10 -190
-10 -27 -6 -56 -11 -63 -12 -8 -1 -27 -14 -44 -30 -17 -15 -41 -31 -55 -34
-23 -6 -23 -7 -4 -20 13 -9 17 -21 14 -35 -4 -15 2 -28 23 -45 38 -31 48 -30
39 3 -4 16 -4 25 0 21 4 -4 17 -3 30 2 13 5 33 6 46 2 21 -6 18 -8 -16 -13
l-40 -5 30 -14 c51 -23 276 -16 267 9 -5 14 5 12 75 -12 24 -8 36 -8 44 0 7 7
3 12 -15 17 -33 8 -33 22 -1 28 28 6 35 1 35 -23 0 -12 6 -16 19 -12 17 4 19
1 11 -31 -7 -30 -5 -36 11 -41 11 -4 19 -11 19 -16 0 -6 -4 -7 -10 -4 -5 3
-10 1 -10 -4 0 -6 5 -11 10 -11 6 0 10 -7 10 -16 0 -8 -4 -13 -9 -10 -5 3 -11
-12 -15 -33 -3 -22 -10 -41 -15 -43 -6 -1 -15 -34 -21 -72 -6 -38 -17 -81 -25
-96 -18 -35 -64 -72 -82 -66 -8 3 -21 -10 -33 -34 -11 -21 -24 -41 -30 -45 -5
-3 -10 -14 -10 -23 0 -9 -16 -37 -35 -61 -19 -24 -35 -48 -35 -53 0 -5 -21
-29 -47 -54 -50 -46 -141 -84 -205 -84 -45 0 -110 21 -134 42 -19 17 -22 17
-28 3 -8 -21 -51 -10 -89 22 -18 14 -41 23 -64 23 -20 0 -65 5 -100 12 -50 9
-69 9 -84 0 -10 -7 -27 -12 -37 -12 -11 0 -34 -10 -53 -23 -19 -12 -56 -31
-82 -41 -27 -10 -59 -29 -72 -42 -13 -13 -29 -24 -35 -24 -5 0 -28 -16 -49
-35 -22 -20 -66 -49 -99 -66 -33 -16 -93 -59 -134 -96 -66 -59 -138 -103 -178
-107 -8 -1 -25 -7 -37 -14 -21 -11 -23 -11 -23 7 0 11 -4 23 -10 26 -5 3 -10
1 -10 -5 0 -13 -29 -44 -42 -46 -4 -1 -19 -2 -33 -3 -28 -1 -35 -21 -7 -21 49
-1 266 -299 238 -327 -4 -4 -11 -1 -16 7 -6 9 -10 10 -10 3 0 -15 -55 -34 -67
-22 -10 10 -53 1 -53 -11 0 -5 8 -10 18 -13 16 -4 16 -4 -2 -12 -11 -5 -21 -3
-26 5 -6 9 -10 8 -17 -5 -9 -15 -14 -15 -33 -5 -21 11 -26 10 -41 -9 -20 -24
-39 -28 -39 -6 0 18 -5 18 -31 5 -13 -7 -19 -7 -19 -1 0 12 -63 2 -68 -11 -2
-4 -10 -8 -18 -8 -8 0 -11 6 -8 15 4 8 2 21 -4 28 -6 6 -12 23 -15 37 -2 14
-5 -253 -6 -592 l-1 -618 73 -2 c39 -1 97 -2 127 -1 30 0 106 1 168 2 67 1
112 5 112 11 0 6 -12 10 -26 10 -22 0 -25 2 -14 15 11 13 7 15 -29 15 -34 0
-41 3 -39 18 2 9 10 20 18 24 11 5 9 7 -7 7 -16 1 -23 7 -23 21 0 11 5 20 10
20 6 0 10 -7 10 -15 0 -8 5 -15 10 -15 6 0 10 7 10 15 0 8 5 15 11 15 6 0 9 6
7 12 -3 7 -13 13 -24 13 -15 0 -18 6 -16 33 3 30 -12 46 -20 20 -3 -7 -9 -8
-18 -3 -25 16 -53 13 -57 -6 -3 -11 -9 -16 -14 -13 -15 9 -10 44 6 50 22 9 18
22 -7 26 -16 2 -28 -5 -41 -26 -23 -35 -34 -27 -17 13 7 17 10 37 6 46 -8 23
4 45 21 38 11 -4 14 -2 11 8 -3 8 -17 14 -31 14 -22 1 -27 -4 -27 -22 0 -14
-6 -23 -15 -23 -8 0 -15 4 -15 9 0 5 -9 13 -21 16 -16 5 -19 12 -15 31 7 27 3
29 -25 14 -15 -8 -19 -7 -19 5 0 9 -9 15 -25 15 -22 0 -24 3 -16 19 8 14 7 20
-4 24 -7 3 -14 14 -14 24 0 10 -2 39 -5 66 -4 47 -4 47 25 47 19 0 28 -4 24
-10 -4 -6 -1 -17 5 -26 10 -11 16 -12 27 -3 10 9 17 9 24 2 15 -15 -7 -26 -50
-25 -20 0 -30 -2 -23 -5 6 -2 12 -16 12 -29 0 -13 5 -24 10 -24 6 0 10 5 10
11 0 5 4 8 9 4 5 -3 13 -1 16 5 4 6 24 8 47 6 30 -4 38 -2 30 6 -8 8 -7 15 4
25 12 13 16 13 28 0 11 -11 12 -17 3 -26 -8 -8 -8 -11 0 -11 6 0 19 -7 28 -16
15 -15 15 -18 -1 -41 -19 -30 -5 -55 19 -34 24 19 48 3 40 -27 -4 -17 -2 -23
6 -18 6 4 11 16 11 27 0 20 10 23 59 13 17 -4 28 -11 25 -16 -4 -6 0 -14 7
-19 20 -13 29 -11 29 5 0 7 10 16 23 20 37 10 40 7 16 -14 -13 -10 -18 -19
-11 -20 6 0 12 -9 12 -20 0 -11 5 -20 11 -20 6 0 8 9 4 20 -7 23 3 26 30 7 15
-12 16 -19 8 -44 -10 -28 -4 -56 11 -54 16 3 46 -26 46 -44 0 -14 3 -16 9 -7
12 20 59 4 64 -21 3 -19 5 -18 16 11 12 29 41 45 41 22 0 -5 -4 -10 -9 -10
-16 0 -19 -61 -3 -67 8 -3 17 0 22 6 5 9 9 6 13 -9 4 -14 10 -19 18 -14 9 5
10 -3 5 -36 -4 -24 -11 -49 -17 -56 -14 -17 11 -24 86 -24 59 0 65 2 85 30 22
30 45 39 52 19 3 -8 14 -8 39 -1 37 10 150 -9 119 -20 -8 -3 -11 -9 -7 -14 5
-5 461 -11 1038 -13 l1029 -3 0 685 c0 793 8 729 -100 773 -36 14 -72 32 -81
40 -8 8 -40 23 -70 33 -60 22 -411 198 -419 210 -7 12 -67 41 -82 41 -8 0 -34
19 -58 43 -25 24 -57 51 -72 60 -43 27 -38 68 12 108 22 18 40 36 40 41 0 5
11 26 25 48 26 41 55 135 55 177 0 32 -27 40 -63 19 -16 -9 -32 -14 -35 -12
-3 3 0 45 7 93 10 83 12 173 3 173 -3 0 -12 -9 -21 -19 -9 -11 -34 -22 -54
-26 l-37 -7 0 44 c0 32 6 50 20 63 11 10 20 22 20 28 0 5 -9 7 -20 4 -22 -6
-24 7 -11 53 7 23 8 24 17 7 10 -18 13 -17 39 8 26 23 28 29 16 47 -11 17 -10
23 7 39 11 10 32 21 47 23 37 7 57 25 53 50 -4 31 -45 33 -75 4 -63 -60 -83
-83 -83 -95 0 -7 -5 -13 -11 -13 -19 0 -2 59 26 91 37 45 45 92 46 276 1 175
-11 257 -48 312 -19 30 -163 171 -174 171 -4 0 -14 6 -21 14 -8 7 -33 23 -56
35 -23 12 -42 24 -42 27 0 3 6 2 13 -2 9 -5 9 -4 1 5 -6 7 -31 15 -55 18 -24
3 -48 11 -54 17 -5 7 -18 15 -27 19 -10 3 -18 13 -18 22 0 8 -7 15 -16 15 -10
0 -14 5 -10 15 4 13 1 12 -20 -2 -24 -15 -28 -15 -57 -1 -18 9 -41 18 -52 21
-11 3 -28 8 -37 12 -13 5 -20 0 -28 -19z m-309 -199 c-8 -8 -11 -7 -11 4 0 9
3 19 7 23 4 4 9 2 11 -4 3 -7 -1 -17 -7 -23z m754 -627 c3 -5 1 -10 -4 -10 -6
0 -11 5 -11 10 0 6 2 10 4 10 3 0 8 -4 11 -10z m-116 -100 c41 -11 77 -23 80
-26 3 -3 -2 -12 -13 -19 -16 -12 -23 -12 -48 1 -24 12 -54 15 -137 12 -58 -2
-115 -8 -126 -12 -20 -7 -20 -7 0 5 25 16 136 57 155 58 8 0 48 -8 89 -19z
m171 -41 c0 -11 -27 -12 -34 0 -3 4 -3 11 0 14 8 8 34 -3 34 -14z m-55 -18
c-3 -6 -11 -11 -17 -11 -6 0 -6 6 2 15 14 17 26 13 15 -4z m-390 -1 c-3 -5
-16 -10 -28 -9 -20 1 -20 2 3 9 14 4 26 8 28 9 2 1 0 -3 -3 -9z m143 -37 c-10
-2 -28 -2 -40 0 -13 2 -5 4 17 4 22 1 32 -1 23 -4z m394 -178 c-6 -35 -19 -31
-14 5 2 16 8 28 12 25 4 -2 5 -16 2 -30z m-20 -80 c-6 -34 -13 -32 -10 4 1 16
5 28 9 26 3 -3 4 -16 1 -30z m3 -82 c-7 -45 -26 -69 -21 -27 2 16 4 37 5 47 0
9 6 17 12 17 6 0 8 -14 4 -37z m-65 -358 c-10 -12 -10 -15 1 -16 11 0 11 -2 1
-6 -10 -4 -9 -9 4 -24 10 -11 12 -19 6 -19 -8 0 -12 -20 -12 -52 0 -29 -9 -93
-19 -143 -21 -102 -26 -195 -11 -195 5 0 10 11 10 24 0 14 5 28 11 31 6 4 8
13 5 20 -3 8 -1 15 4 17 9 3 31 75 43 138 4 24 5 24 12 3 6 -17 13 -21 41 -18
19 2 32 -1 29 -5 -3 -4 1 -10 9 -13 25 -10 28 -59 7 -103 -11 -22 -23 -54 -27
-70 -4 -16 -16 -42 -26 -59 -21 -36 -26 -74 -5 -53 15 16 47 84 47 101 0 7 7
22 15 33 15 18 16 17 10 -16 -18 -98 -39 -132 -173 -268 -72 -72 -143 -137
-159 -144 -17 -7 -90 -12 -185 -12 -150 -1 -157 -2 -182 -25 l-25 -24 -5 24
c-17 77 -49 347 -50 420 -1 48 -7 93 -13 100 -5 8 -13 52 -17 99 -4 47 -9 96
-12 110 -5 24 -5 25 11 5 9 -11 26 -41 38 -67 12 -26 29 -50 38 -53 9 -3 20
-16 24 -28 6 -20 8 -20 12 -4 4 14 11 17 29 13 13 -4 24 -3 23 1 -5 30 3 34
66 30 96 -6 167 32 301 163 56 55 110 100 120 100 13 0 14 -3 4 -15z m-1585
-994 c13 -27 29 -52 35 -56 5 -3 10 -10 10 -16 0 -15 -25 -10 -46 9 -10 9 -36
28 -56 42 -44 29 -45 34 -16 54 35 25 46 20 73 -33z m-490 -671 c3 -5 1 -10
-4 -10 -6 0 -11 5 -11 10 0 6 2 10 4 10 3 0 8 -4 11 -10z m2815 -5 c0 -8 -7
-15 -15 -15 -8 0 -15 7 -15 15 0 8 7 15 15 15 8 0 15 -7 15 -15z m-90 -20 c0
-8 -4 -15 -10 -15 -5 0 -10 7 -10 15 0 8 5 15 10 15 6 0 10 -7 10 -15z m180 0
c0 -8 -4 -15 -9 -15 -5 0 -11 7 -15 15 -3 9 0 15 9 15 8 0 15 -7 15 -15z
m-260 -50 c0 -8 -7 -15 -15 -15 -16 0 -20 12 -8 23 11 12 23 8 23 -8z m348 3
c-6 -18 -28 -21 -28 -4 0 9 7 16 16 16 9 0 14 -5 12 -12z m-2868 -28 c0 -5 -4
-10 -10 -10 -5 0 -10 5 -10 10 0 6 5 10 10 10 6 0 10 -4 10 -10z m2614 -6 c3
-9 6 -19 6 -24 0 -16 -53 -72 -77 -81 -16 -6 -23 -15 -21 -26 5 -26 33 -27 57
-2 12 13 21 19 21 14 0 -40 -87 -62 -97 -25 -3 13 -14 20 -29 20 -31 0 -50 35
-32 58 23 30 48 42 48 23 0 -5 -9 -13 -20 -16 -24 -8 -27 -40 -4 -49 23 -9 31
-1 38 38 11 59 94 112 110 70z m193 -73 c-1 -32 -5 -57 -9 -54 -12 6 -10 113
2 113 5 0 8 -27 7 -59z m29 -48 c-11 -29 -17 -6 -9 33 7 36 8 37 11 11 2 -16
1 -36 -2 -44z m-103 15 c-4 -20 -3 -29 4 -25 6 4 13 20 16 37 4 16 11 30 17
30 6 0 6 -9 1 -23 -5 -13 -5 -30 -1 -38 7 -12 2 -15 -26 -16 -34 -1 -35 0 -29
29 5 21 4 28 -4 24 -6 -4 -11 -18 -11 -32 0 -13 -5 -24 -11 -24 -6 0 -8 7 -5
16 3 9 6 24 6 34 0 17 26 31 42 23 4 -2 5 -18 1 -35z m134 7 c-4 -23 -2 -35 6
-36 9 0 8 -2 0 -6 -7 -2 -13 -11 -13 -18 0 -19 -37 -39 -45 -25 -3 5 1 10 10
10 9 0 14 4 10 9 -3 5 -1 12 4 15 5 4 12 24 16 46 4 22 9 40 12 40 3 0 3 -16
0 -35z m-200 -15 c-2 -36 -4 -40 -29 -40 -29 0 -36 18 -22 54 11 27 21 17 16
-15 -3 -22 -1 -30 7 -25 6 4 11 20 11 37 0 16 4 29 10 29 5 0 9 -18 7 -40z
m-1959 -6 c5 -38 -51 -42 -61 -4 -6 24 -4 26 30 25 21 0 29 -6 31 -21z m-538
-4 c0 -5 -4 -10 -10 -10 -5 0 -10 5 -10 10 0 6 5 10 10 10 6 0 10 -4 10 -10z
m-26 -35 c3 -8 1 -15 -4 -15 -6 0 -10 7 -10 15 0 8 2 15 4 15 2 0 6 -7 10 -15z"/>
<path d="M6896 3518 c-15 -13 -29 -38 -33 -57 l-6 -35 31 23 c34 24 52 50 52
75 0 22 -14 20 -44 -6z"/>
<path d="M5364 6152 c-20 -13 -35 -52 -29 -73 6 -18 9 -19 28 -6 15 10 36 12
66 8 l44 -6 -29 -13 c-16 -8 -41 -20 -56 -27 -16 -8 -28 -10 -28 -5 0 6 5 10
10 10 6 0 10 4 10 10 0 5 -6 7 -14 4 -20 -8 -18 -94 1 -94 10 0 12 -6 8 -19
-13 -41 184 -35 199 6 3 8 1 11 -5 8 -5 -4 -16 -1 -24 5 -12 10 -15 10 -15 0
0 -7 -8 -10 -20 -7 -11 3 -20 1 -20 -4 0 -5 -13 -9 -30 -9 -31 0 -43 19 -12
21 23 2 34 4 52 11 8 4 32 9 54 12 32 4 39 2 43 -14 8 -31 30 -23 37 13 19 93
19 92 -16 127 -25 26 -45 36 -83 41 -66 10 -157 11 -171 1z"/>
<path d="M6192 5938 c8 -23 35 -33 52 -19 9 7 13 17 10 22 -8 14 -66 11 -62
-3z"/>
<path d="M5830 5881 c0 -6 5 -13 10 -16 31 -19 -4 -78 -47 -81 -34 -2 -73 -20
-73 -33 0 -16 -64 -19 -85 -5 -31 22 -55 18 -55 -10 0 -31 21 -52 60 -61 16
-4 30 -11 30 -16 0 -16 44 -10 85 12 22 12 57 30 77 40 43 22 55 53 39 100
-15 45 1 65 31 36 7 -7 28 -23 47 -36 32 -23 33 -23 22 -3 -24 45 -141 105
-141 73z"/>
<path d="M5575 5850 c-3 -5 -1 -10 4 -10 6 0 11 5 11 10 0 6 -2 10 -4 10 -3 0
-8 -4 -11 -10z"/>
<path d="M5550 5819 c0 -5 5 -7 10 -4 6 3 10 8 10 11 0 2 -4 4 -10 4 -5 0 -10
-5 -10 -11z"/>
<path d="M6093 5735 c-8 -9 -9 -16 -3 -20 6 -4 8 -10 6 -14 -3 -4 -1 -13 3
-20 7 -11 15 -11 45 0 41 15 45 27 16 52 -24 20 -50 21 -67 2z"/>
<path d="M5368 5655 c2 -14 8 -25 13 -25 5 0 9 -10 9 -21 0 -18 2 -19 15 -9
29 24 15 80 -20 80 -18 0 -21 -4 -17 -25z"/>
<path d="M5557 5614 c-3 -3 -3 -12 0 -20 4 -12 0 -12 -21 -4 -16 6 -26 6 -26
0 0 -13 52 -60 67 -60 7 0 13 -9 13 -20 0 -11 7 -20 15 -20 8 0 15 4 15 9 0 5
-7 14 -15 21 -29 24 -14 30 78 30 50 -1 120 3 155 8 34 4 62 7 62 5 0 -1 -13
-16 -30 -31 -16 -16 -30 -32 -30 -34 0 -11 70 19 100 42 18 14 46 27 63 30 17
3 32 10 34 17 6 18 -58 27 -140 19 -40 -4 -79 -7 -87 -8 -8 0 -21 -5 -28 -11
-16 -13 -112 -20 -112 -9 0 5 -23 7 -52 4 -44 -4 -50 -3 -45 11 6 16 -5 31
-16 21z"/>
<path d="M5431 5533 c-1 -12 5 -26 12 -30 7 -4 21 -25 32 -45 11 -21 23 -38
27 -38 5 0 8 -6 8 -12 0 -7 14 -29 31 -48 l30 -35 -23 45 c-12 25 -24 47 -27
50 -4 3 -12 15 -19 28 -11 19 -10 22 5 23 15 0 14 3 -4 11 -13 6 -23 17 -23
25 0 12 -6 14 -27 12 -4 0 -10 8 -14 18 -7 16 -8 15 -8 -4z"/>
<path d="M4150 5440 c0 -5 7 -10 16 -10 8 0 12 5 9 10 -3 6 -10 10 -16 10 -5
0 -9 -4 -9 -10z"/>
<path d="M5590 5441 c0 -19 84 -49 123 -44 35 5 52 22 25 24 -7 1 -29 3 -48 4
-19 2 -48 8 -63 14 -34 13 -37 13 -37 2z"/>
<path d="M4240 5410 c20 -13 40 -13 40 0 0 6 -12 10 -27 10 -22 0 -25 -2 -13
-10z"/>
<path d="M4334 4955 c-18 -15 -18 -15 7 -9 39 8 45 -12 12 -40 -34 -30 -23
-47 35 -51 36 -3 39 -1 51 32 8 21 9 38 4 42 -5 3 -12 14 -16 24 -8 22 -65 23
-93 2z m96 -49 c0 -3 -4 -8 -10 -11 -5 -3 -10 -1 -10 4 0 6 5 11 10 11 6 0 10
-2 10 -4z m-40 -21 c0 -8 -4 -15 -10 -15 -5 0 -10 7 -10 15 0 8 5 15 10 15 6
0 10 -7 10 -15z"/>
<path d="M4150 4925 c0 -16 27 -20 48 -6 10 6 8 10 -10 14 -34 10 -38 9 -38
-8z"/>
<path d="M4237 4914 c-12 -12 4 -24 34 -24 31 0 39 14 13 24 -20 8 -39 8 -47
0z"/>
<path d="M4175 4860 c-4 -6 9 -10 32 -9 30 0 34 2 18 9 -27 12 -43 12 -50 0z"/>
<path d="M4270 4830 c0 -5 15 -10 33 -10 24 0 28 3 17 10 -20 13 -50 13 -50 0z"/>
<path d="M4150 4814 c0 -8 5 -12 10 -9 6 4 8 11 5 16 -9 14 -15 11 -15 -7z"/>
<path d="M4187 4792 c-10 -10 -14 -22 -10 -25 12 -12 50 -7 63 8 27 33 -24 49
-53 17z"/>
<path d="M4262 4768 c-17 -17 -15 -23 15 -37 22 -10 28 -10 35 3 5 9 16 16 23
16 20 0 19 16 -1 24 -25 10 -59 7 -72 -6z"/>
<path d="M4150 4725 c0 -34 1 -34 20 -18 11 10 20 21 20 25 0 4 -9 12 -20 18
-18 10 -20 8 -20 -25z"/>
<path d="M4181 4701 c-26 -33 -31 -47 -30 -92 l1 -54 11 43 c5 24 16 42 23 42
8 0 14 5 14 10 0 6 4 10 10 10 5 0 21 10 34 21 21 18 23 24 13 40 -18 29 -42
23 -76 -20z"/>
<path d="M4430 4620 c0 -5 5 -10 10 -10 6 0 10 5 10 10 0 6 -4 10 -10 10 -5 0
-10 -4 -10 -10z"/>
<path d="M4332 3723 c-23 -9 -1 -23 36 -23 21 0 32 4 27 9 -14 12 -48 20 -63
14z"/>
</g>
</svg>
