<svg xmlns="http://www.w3.org/2000/svg" viewBox="0 0 339 339"><defs><style>.cls-1,.cls-7{fill:none;}.cls-1,.cls-2,.cls-3,.cls-4,.cls-7{stroke:#484949;stroke-miterlimit:10;}.cls-1,.cls-2,.cls-3,.cls-4{stroke-width:5px;}.cls-2{fill:#54d0a2;}.cls-3{fill:#b5e3fe;}.cls-4{fill:#b288eb;}.cls-5{font-size:13.59px;}.cls-5,.cls-6{fill:#484949;font-family:IBMPlexMono, IBM Plex Mono;}.cls-6{font-size:13.4px;}.cls-7{stroke-width:4px;}</style></defs><title>logo andrey</title><g id="Capa_2" data-name="Capa 2"><path class="cls-1" d="M247.07,311.89S304.5,266.16,346,207.67" transform="translate(-128 -139)"/><path class="cls-1" d="M248.12,200.77v225.4" transform="translate(-128 -139)"/><path class="cls-1" d="M355.57,413.06c15.73-115.31-107.45-99.59-107.45-99.59" transform="translate(-128 -139)"/><circle class="cls-2" cx="121.43" cy="63.09" r="18.35"/><circle class="cls-2" cx="121.43" cy="275.37" r="18.35"/><circle class="cls-3" cx="218.4" cy="68.33" r="18.35"/><circle class="cls-2" cx="119.87" cy="169.97" r="18.35"/><circle class="cls-4" cx="228.88" cy="275.37" r="18.35"/><text class="cls-5" transform="matrix(0.88, -0.48, 0.48, 0.88, 93.48, 39.58)">1</text><text class="cls-5" transform="translate(100.52 35.72) rotate(-25.66)">0</text><text class="cls-5" transform="translate(107.76 32.24) rotate(-22.58)">1</text><text class="cls-5" transform="translate(115.16 29.16) rotate(-19.51)">0</text><text class="cls-5" transform="matrix(0.96, -0.28, 0.28, 0.96, 122.73, 26.47)">1</text><text class="cls-5" transform="translate(130.42 24.2) rotate(-13.35)">0</text><text class="cls-5" transform="matrix(0.98, -0.18, 0.18, 0.98, 138.23, 22.34)">1</text><text class="cls-5" transform="matrix(0.99, -0.13, 0.13, 0.99, 146.14, 20.91)">0</text><text class="cls-5" transform="matrix(1, -0.07, 0.07, 1, 154.1, 19.9)">1</text><text class="cls-5" transform="matrix(1, -0.02, 0.02, 1, 162.12, 19.31)">0</text><text class="cls-5" transform="translate(170.13 19.15) rotate(1.85)">1</text><text class="cls-5" transform="translate(178.17 19.4) rotate(4.89)">0</text><text class="cls-5" transform="translate(186.16 20.08) rotate(7.93)">1</text><text class="cls-5" transform="translate(194.12 21.19) rotate(11)">0</text><text class="cls-5" transform="translate(202.01 22.72) rotate(14.08)">1</text><text class="cls-5" transform="matrix(0.96, 0.29, -0.29, 0.96, 209.77, 24.66)">0</text><text class="cls-5" transform="translate(217.46 27.03) rotate(20.24)">1</text><text class="cls-5" transform="matrix(0.92, 0.4, -0.4, 0.92, 224.99, 29.8)">0</text><text class="cls-5" transform="translate(232.36 32.98) rotate(26.39)">1</text><text class="cls-5" transform="matrix(0.87, 0.49, -0.49, 0.87, 239.54, 36.54)">0</text><text class="cls-5" transform="translate(246.53 40.48) rotate(32.51)">1</text><text class="cls-5" transform="matrix(0.81, 0.58, -0.58, 0.81, 253.31, 44.8)">0</text><text class="cls-5" transform="matrix(0.78, 0.62, -0.62, 0.78, 259.84, 49.46)">1</text><text class="cls-5" transform="translate(266.13 54.48) rotate(41.65)">0</text><text class="cls-5" transform="translate(272.12 59.8) rotate(44.68)">1</text><text class="cls-5" transform="matrix(0.67, 0.74, -0.74, 0.67, 277.84, 65.45)">0</text><text class="cls-5" transform="matrix(0.63, 0.77, -0.77, 0.63, 283.23, 71.38)">1</text><text class="cls-5" transform="matrix(0.59, 0.81, -0.81, 0.59, 288.33, 77.61)">0</text><text class="cls-5" transform="translate(293.06 84.07) rotate(56.85)">1</text><text class="cls-5" transform="translate(297.45 90.79) rotate(59.91)">0</text><text class="cls-5" transform="translate(301.49 97.75) rotate(62.98)">1</text><text class="cls-5" transform="translate(305.13 104.89) rotate(66.05)">0</text><text class="cls-5" transform="translate(308.39 112.22) rotate(69.13)">1</text><text class="cls-5" transform="translate(311.26 119.73) rotate(72.21)">0</text><text class="cls-5" transform="matrix(0.25, 0.97, -0.97, 0.25, 313.71, 127.35)">1</text><text class="cls-5" transform="translate(315.75 135.11) rotate(78.36)">0</text><text class="cls-5" transform="matrix(0.15, 0.99, -0.99, 0.15, 317.37, 142.98)">1</text><text class="cls-5" transform="translate(318.58 150.94) rotate(84.49)">0</text><text class="cls-5" transform="matrix(0.04, 1, -1, 0.04, 319.35, 158.91)">1</text><text class="cls-5" transform="translate(319.72 166.94) rotate(90.7)">0</text><text class="cls-5" transform="matrix(-0.06, 1, -1, -0.06, 319.63, 174.96)">1</text><text class="cls-5" transform="translate(319.14 182.97) rotate(96.57)">0</text><text class="cls-5" transform="translate(318.23 190.96) rotate(99.63)">1</text><text class="cls-5" transform="matrix(-0.22, 0.98, -0.98, -0.22, 316.89, 198.88)">0</text><text class="cls-5" transform="translate(315.13 206.71) rotate(105.79)">1</text><text class="cls-5" transform="translate(312.94 214.44) rotate(108.87)">0</text><text class="cls-5" transform="translate(310.35 222.03) rotate(111.94)">1</text><text class="cls-5" transform="translate(307.35 229.48) rotate(115.02)">0</text><text class="cls-5" transform="translate(303.97 236.74) rotate(118.08)">1</text><text class="cls-5" transform="matrix(-0.52, 0.86, -0.86, -0.52, 300.19, 243.83)">0</text><text class="cls-5" transform="matrix(-0.56, 0.83, -0.83, -0.56, 296.03, 250.71)">1</text><text class="cls-5" transform="translate(291.52 257.35) rotate(127.25)">0</text><text class="cls-5" transform="matrix(-0.65, 0.76, -0.76, -0.65, 286.67, 263.74)">1</text><text class="cls-5" transform="matrix(-0.69, 0.73, -0.73, -0.69, 281.49, 269.85)">0</text><text class="cls-5" transform="matrix(-0.72, 0.69, -0.69, -0.72, 275.98, 275.7)">1</text><text class="cls-5" transform="translate(270.16 281.25) rotate(139.41)">0</text><text class="cls-5" transform="translate(264.08 286.47) rotate(142.45)">1</text><text class="cls-5" transform="matrix(-0.82, 0.57, -0.57, -0.82, 257.71, 291.37)">0</text><text class="cls-5" transform="translate(251.11 295.91) rotate(148.55)">1</text><text class="cls-5" transform="matrix(-0.88, 0.48, -0.48, -0.88, 244.25, 300.11)">0</text><text class="cls-5" transform="translate(237.19 303.93) rotate(154.68)">1</text><text class="cls-5" transform="matrix(-0.93, 0.38, -0.38, -0.93, 229.95, 307.36)">0</text><text class="cls-5" transform="matrix(-0.94, 0.33, -0.33, -0.94, 222.5, 310.41)">1</text><text class="cls-5" transform="matrix(-0.96, 0.28, -0.28, -0.96, 214.94, 313.04)">0</text><text class="cls-5" transform="translate(207.22 315.27) rotate(166.99)">1</text><text class="cls-5" transform="translate(199.4 317.08) rotate(170.06)">0</text><text class="cls-5" transform="matrix(-0.99, 0.12, -0.12, -0.99, 191.48, 318.47)">1</text><text class="cls-5" transform="matrix(-1, 0.07, -0.07, -1, 183.53, 319.43)">0</text><text class="cls-5" transform="translate(175.49 319.95) rotate(178.85)">1</text><text class="cls-5" transform="translate(167.49 320.1) rotate(-177.82)">0</text><text class="cls-5" transform="translate(159.46 319.79) rotate(-174.79)">1</text><text class="cls-5" transform="matrix(-0.99, -0.14, 0.14, -0.99, 151.45, 319.07)">0</text><text class="cls-5" transform="translate(143.51 317.91) rotate(-168.66)">1</text><text class="cls-5" transform="matrix(-0.97, -0.25, 0.25, -0.97, 135.64, 316.34)">0</text><text class="cls-5" transform="translate(127.86 314.34) rotate(-162.5)">1</text><text class="cls-5" transform="translate(120.22 311.94) rotate(-159.43)">0</text><text class="cls-5" transform="translate(112.71 309.13) rotate(-156.35)">1</text><text class="cls-5" transform="matrix(-0.89, -0.45, 0.45, -0.89, 105.34, 305.9)">0</text><text class="cls-5" transform="matrix(-0.87, -0.5, 0.5, -0.87, 98.17, 302.3)">1</text><text class="cls-5" transform="translate(91.21 298.31) rotate(-147.16)">0</text><text class="cls-5" transform="translate(84.46 293.96) rotate(-144.11)">1</text><text class="cls-5" transform="translate(77.96 289.26) rotate(-141.07)">0</text><text class="cls-5" transform="matrix(-0.74, -0.67, 0.67, -0.74, 71.7, 284.21)">1</text><text class="cls-5" transform="translate(65.74 278.85) rotate(-134.99)">0</text><text class="cls-5" transform="translate(60.05 273.17) rotate(-131.95)">1</text><text class="cls-5" transform="translate(54.69 267.21) rotate(-128.91)">0</text><text class="cls-5" transform="matrix(-0.59, -0.81, 0.81, -0.59, 49.63, 260.95)">1</text><text class="cls-5" transform="translate(44.94 254.46) rotate(-122.81)">0</text><text class="cls-5" transform="translate(40.59 247.71) rotate(-119.76)">1</text><text class="cls-5" transform="translate(36.6 240.75) rotate(-116.69)">0</text><text class="cls-5" transform="matrix(-0.4, -0.92, 0.92, -0.4, 32.98, 233.56)">1</text><text class="cls-5" transform="translate(29.76 226.2) rotate(-110.53)">0</text><text class="cls-5" transform="translate(26.95 218.7) rotate(-107.46)">1</text><text class="cls-5" transform="translate(24.54 211.03) rotate(-104.37)">0</text><text class="cls-5" transform="matrix(-0.2, -0.98, 0.98, -0.2, 22.55, 203.28)">1</text><text class="cls-5" transform="translate(20.97 195.4) rotate(-98.24)">0</text><text class="cls-5" transform="matrix(-0.09, -1, 1, -0.09, 19.81, 187.45)">1</text><text class="cls-5" transform="translate(19.08 179.47) rotate(-92.16)">0</text><text class="cls-5" transform="translate(18.78 171.44) rotate(-89.16)">1</text><text class="cls-5" transform="translate(18.89 163.39) rotate(-86.13)">0</text><text class="cls-5" transform="translate(19.43 155.39) rotate(-83.09)">1</text><text class="cls-5" transform="translate(20.39 147.42) rotate(-80.03)">0</text><text class="cls-5" transform="translate(21.78 139.52) rotate(-76.96)">1</text><text class="cls-5" transform="translate(23.59 131.7) rotate(-73.88)">0</text><text class="cls-5" transform="translate(25.81 123.99) rotate(-70.8)">1</text><text class="cls-5" transform="translate(28.45 116.39) rotate(-67.71)">0</text><text class="cls-5" transform="matrix(0.43, -0.9, 0.9, 0.43, 31.49, 108.98)">1</text><text class="cls-5" transform="translate(34.92 101.73) rotate(-61.58)">0</text><text class="cls-5" transform="translate(38.74 94.66) rotate(-58.52)">1</text><text class="cls-5" transform="matrix(0.57, -0.82, 0.82, 0.57, 42.92, 87.82)">0</text><text class="cls-5" transform="matrix(0.61, -0.79, 0.79, 0.61, 47.47, 81.21)">1</text><text class="cls-5" transform="translate(52.37 74.83) rotate(-49.38)">0</text><text class="cls-5" transform="translate(57.61 68.73) rotate(-46.33)">1</text><text class="cls-5" transform="matrix(0.73, -0.69, 0.69, 0.73, 63.13, 62.93)">0</text><text class="cls-5" transform="translate(68.98 57.41) rotate(-40.26)">1</text><text class="cls-5" transform="translate(75.1 52.23) rotate(-37.22)">0</text><text class="cls-5" transform="matrix(0.83, -0.56, 0.56, 0.83, 81.49, 47.37)">1</text><text class="cls-6" transform="translate(87.4 43.11) rotate(-29.25)">0</text><circle class="cls-7" cx="169.5" cy="169.5" r="167.5"/></g></svg>