<svg id="Capa_1" data-name="Capa 1" xmlns="http://www.w3.org/2000/svg" viewBox="0 0 540.79 372.63"><defs><style>.cls-1{fill:#bcbcbc;opacity:0.56;}.cls-2{fill:#fbbebe;}.cls-3{fill:#3f3d56;}.cls-4{fill:#54d0a2;}.cls-5{fill:#3f3c4b;}.cls-6{fill:#464353;}.cls-6,.cls-7{stroke:#43404f;}.cls-10,.cls-6,.cls-7{stroke-miterlimit:10;}.cls-7,.cls-8{fill:#43404f;}.cls-9{fill:#fff;}.cls-10{fill:none;stroke:#484949;}.cls-11{fill:#b5e3fe;}.cls-12{fill:#b288eb;}</style></defs><title>ilustracion andrey</title><path class="cls-1" d="M434.85,153.62c-13.47,8.54-24.07,17.66-39.72,22.33a156.61,156.61,0,0,1-39.43,6c-45.18,1.58-90.42-10.81-132.41-26.36-15.54-5.76-30.85-12.15-45.94-19-18.18-8.23-41.15-12-60.89-11.13-31.09,1.35-52,24.08-57.1,53.78-6.8,39.59,19.13,66.49,25.18,103.41,5.26,32.15-20.28,57.39-37.22,82.07-61.45,89.53,68.4,112,128.86,117.48q9.93.9,19.88,1.51S462.7,503.8,534.72,472A73.16,73.16,0,0,0,561,451.64c13.9-17.42,7.92-36-7.69-50.34-22-20.23-59.63-28.43-65.46-62.54-4.74-27.7,16.25-53.67,34-72.27,25.7-26.87,50.59-73.69,12.87-102.43-27.17-20.7-67-30.88-98.47-11.32C435.78,153,435.31,153.32,434.85,153.62Z" transform="translate(-27.99 -125.37)"/><path class="cls-2" d="M46.88,365.54s2.57,41.15,4.29,44.15c0,0,20.15-3,24.43,5.14l.86-49.29S51.17,356.1,46.88,365.54Z" transform="translate(-27.99 -125.37)"/><path class="cls-2" d="M86.78,281.52a20.26,20.26,0,0,0,8.12,9.56,22,22,0,0,0,2.46,1.38,30.74,30.74,0,0,0,14.25,2.77s17.15-.86,21-18c0,0,6-15.43-10.29-26.58,0,0-12-7.72-29.58,0C92.75,250.65,77.37,258.38,86.78,281.52Z" transform="translate(-27.99 -125.37)"/><path class="cls-3" d="M214.07,462a28.24,28.24,0,0,0,11.72,1.28c7.65-.86,11-4.6,18.36,0,8.23,5.14,14.87,21.09,8.28,29.81-5.05,6.68-22.78,6.06-28.5,1.05,0,0-3.44-3-18.44-1.29,0,0-16.72,2.15-19.29-6.86-1.89-6.61-.45-14,0-20.74a2.54,2.54,0,0,1,.28-1.19c1.27-2.05,10.42-2.62,12.54-2.9C204,460.49,209.2,460.37,214.07,462Z" transform="translate(-27.99 -125.37)"/><path class="cls-3" d="M133.93,238.76a40.26,40.26,0,0,1-3.09-3.75c-3.56-5.22-9.18-7.45-15.37-7.94,0,0-20.15-3.86-26.15,6.43A30.2,30.2,0,0,1,83.88,240c-2.65,2.52-6.43,4-8.44,7.18-2.15,3.39-5.39,16.07-.26,18.43,2.42,1.12.57,6.08.87,7.93.36,2.2-.24,1.88,1.45,3.47.7.66,4.84,1.32,5,1.89l1.29,6s1.88,1.18,3-3.42a36.18,36.18,0,0,0,.83-7.29c.11-3.46,1-10.63,4.73-12.47,1.58-.78,3.93.11,5.71,0a14.18,14.18,0,0,0,8.42-3.78c3.43-3.19,8.1-2.17,11.78,0,1.9,1.1,3.16,2.8,4.88,4,.94.68,4.88,2.08,5.2,2.43a18.82,18.82,0,0,1,4.29,12.86s4.28,6.43,6.43-1.29c.21-.76-1.31-5.25-1.34-6.46C137.43,257.4,143,248.93,133.93,238.76Z" transform="translate(-27.99 -125.37)"/><path class="cls-2" d="M97.36,292.46s2.25,9.2-4.18,10.49c0,0,.86,21.43,23.15,21.86,0,0,24.24-.72,20.57-25.29,0,0-8.07-1.22-10-11.33C126.87,288.19,117.4,300.4,97.36,292.46Z" transform="translate(-27.99 -125.37)"/><path class="cls-4" d="M76.46,365.54s-26.15-8.15-29.58,0c0,0-3.43-1.72,0-7.29,0,0,4.72-30,10.72-33.44,0,0,.43-9.86,8.57-7.29,0,0,.53-4.71,6.91-2.57,0,0,4.67-7.71,8.1-5.57,0,0,8.57-10.29,12-6.43,0,0,3.43,21.43,23.15,21.86,0,0,21.86-1.71,20.57-25.29,0,0,5.58-4.29,12.86,4.71,0,0,4.29,2.82,8.15,2.27,0,0,6.86,1.95,6.86,5,0,0,10.72,0,15,16.32,0,0,2.57,13.29,2.15,17.15H77.75S74.32,342.82,76.46,365.54Z" transform="translate(-27.99 -125.37)"/><rect class="cls-3" x="47.61" y="218.57" width="120.46" height="75.61" rx="3.96"/><path class="cls-5" d="M80.32,419.55s2.57,7.71,10.29,10.72c0,0,36.88,11.57,43.09,16.71,0,0,18.64-10.28,31.07-10.71,0,0,11.57-2.15,15.43-6.43,0,0,6-6,0-10.29Z" transform="translate(-27.99 -125.37)"/><path class="cls-6" d="M51.17,409.69c-5.87,1.07-11.36,11.67-13.2,16.9-3.22,9.16.83,16.59,7.39,23.39,0,0,22.62,20.15,86.23,27.87,0,0,10.89,2.14,18.6,6.86,0,0,16.72,4.28,20.15,3,0,0,3,3,2.14-7.29,0,0-1.28-10.72,3.86-16.29,0,0,6.43-11.14-13.29-7.72,0,0-9-7.71-17.14-2.57,0,0-6-3.43-12.21-6.86,0,0-15.17-18.76-46.28-18.38,0,0-.67-9.05-7.1-9.05,0,0-4.8,0-4.72-4.72C75.6,414.83,74.75,405.4,51.17,409.69Z" transform="translate(-27.99 -125.37)"/><path class="cls-7" d="M196.06,414.83s20.58,2.15,23.58,8.58c3.43,7.34,8.86,14.59,7.52,23.47-1.13,7.52-6,12.66-13.09,15.11,0,0-32.15,2.57-37.73,2.14,0,0,7.29-12.43-13.29-7.72,0,0-9-8.57-17.14-2.57L133.7,447s19.07-15.86,31.07-10.71c0,0,13-4.91,17.19-8.88l-1.76-7.84h11.15S196.06,419.12,196.06,414.83Z" transform="translate(-27.99 -125.37)"/><path class="cls-2" d="M172.48,480.42s9.43,5.14,13.72,5.57c1.33.14,5.85-7.94,5.9-9.61.14-5-5.62-7.34-3.75-12.6l-12,.35S170.77,467.56,172.48,480.42Z" transform="translate(-27.99 -125.37)"/><path class="cls-8" d="M128.8,477.5a57.69,57.69,0,0,1-32.62,0l-3-6.76Z" transform="translate(-27.99 -125.37)"/><path class="cls-3" d="M45.36,450c-13-5.87-29.91,37.89-3.19,33.44,0,0,10.29-1.71,13.71-1.71,0,0,12.87.43,19.72.43,0,0,12.5-1.33,11.4-13.1C87,469,60.55,456.84,45.36,450Z" transform="translate(-27.99 -125.37)"/><polygon class="cls-2" points="58.25 349.52 66.36 348.01 65.19 345.37 59 343.67 58.25 349.52"/><circle class="cls-9" cx="107.84" cy="256.38" r="4.39"/><polyline class="cls-10" points="161.86 156.15 304.39 156.15 446.71 156.15 493.87 156.15"/><path class="cls-10" d="M332.38,281.51a14.69,14.69,0,0,1,2.91,6.85c.85,6.27-6.67,11.77-1.84,17.65,4.68,5.71,15.95,5.47,22.4,5.48H456.53c5.13,0,9.73.46,14.28-2.36,4-2.48,5.79-6.38,3-10.63,0,0-9.43-7.55.86-17" transform="translate(-27.99 -125.37)"/><path class="cls-10" d="M227.37,281.51a11.24,11.24,0,0,0,3.55-6.83c.79-6.41-7.86-12.56-2.32-18.55,4.69-5.08,14.19-4.81,20.4-4.62" transform="translate(-27.99 -125.37)"/><rect class="cls-4" x="145.35" y="65.93" width="33.01" height="23.3"/><rect class="cls-11" x="205.7" y="65.93" width="33.01" height="23.3"/><rect class="cls-12" x="312.87" y="65.93" width="33.01" height="23.3"/><circle class="cls-4" cx="161.86" cy="156.15" r="9.4"/><circle class="cls-11" cx="222.2" cy="127.29" r="9.4"/><circle class="cls-4" cx="222.2" cy="156.15" r="9.4"/><circle class="cls-4" cx="262.35" cy="156.15" r="9.4"/><circle class="cls-12" cx="381.15" cy="184.93" r="9.4"/><circle class="cls-12" cx="329.37" cy="184.93" r="9.4"/><circle class="cls-4" cx="376.68" cy="156.15" r="9.4"/><circle class="cls-4" cx="447.3" cy="156.15" r="9.4"/><circle class="cls-4" cx="493.87" cy="156.15" r="9.4"/></svg>